<svg id="svg" version="1.1" xmlns="http://www.w3.org/2000/svg" xmlns:xlink="http://www.w3.org/1999/xlink" width="400" height="400" viewBox="0, 0, 400,400"><g id="svgg"><path id="path0" d="M39.100 0.291 C 38.055 0.375,37.200 0.614,37.200 0.822 C 37.200 1.030,36.480 1.200,35.600 1.200 C 34.720 1.200,34.000 1.380,34.000 1.600 C 34.000 1.820,33.561 2.000,33.024 2.000 C 32.487 2.000,31.936 2.180,31.800 2.400 C 31.664 2.620,31.203 2.800,30.776 2.800 C 30.349 2.800,30.000 2.980,30.000 3.200 C 30.000 3.420,29.640 3.600,29.200 3.600 C 28.760 3.600,28.400 3.780,28.400 4.000 C 28.400 4.220,28.040 4.400,27.600 4.400 C 27.160 4.400,26.800 4.546,26.800 4.725 C 26.800 4.904,26.170 5.298,25.400 5.600 C 24.630 5.902,24.000 6.296,24.000 6.475 C 24.000 6.654,23.680 6.800,23.288 6.800 C 22.897 6.800,22.317 7.160,22.000 7.600 C 21.683 8.040,21.180 8.400,20.883 8.400 C 20.586 8.400,20.092 8.625,19.785 8.900 C 19.157 9.464,18.921 9.652,16.400 11.595 C 14.370 13.160,11.211 16.417,11.204 16.953 C 11.202 17.147,10.872 17.597,10.472 17.953 C 10.071 18.309,9.396 19.230,8.972 20.000 C 8.547 20.770,7.885 21.691,7.500 22.047 C 7.115 22.403,6.800 22.988,6.800 23.347 C 6.800 23.706,6.654 24.000,6.475 24.000 C 6.296 24.000,5.902 24.630,5.600 25.400 C 5.298 26.170,4.904 26.800,4.725 26.800 C 4.546 26.800,4.400 27.160,4.400 27.600 C 4.400 28.040,4.220 28.400,4.000 28.400 C 3.780 28.400,3.600 28.760,3.600 29.200 C 3.600 29.640,3.420 30.000,3.200 30.000 C 2.980 30.000,2.800 30.349,2.800 30.776 C 2.800 31.203,2.620 31.664,2.400 31.800 C 2.180 31.936,2.000 32.476,2.000 33.000 C 2.000 33.524,1.820 34.064,1.600 34.200 C 1.380 34.336,1.200 35.052,1.200 35.790 C 1.200 36.529,0.975 37.208,0.700 37.300 C -0.210 37.603,-0.223 304.408,0.686 306.329 C 1.517 308.082,4.527 311.200,5.389 311.200 C 5.725 311.200,6.000 311.380,6.000 311.600 C 6.000 311.820,6.360 312.000,6.800 312.000 C 7.240 312.000,7.600 312.180,7.600 312.400 C 7.600 312.645,9.533 312.800,12.600 312.800 C 15.667 312.800,17.600 312.645,17.600 312.400 C 17.600 312.180,17.960 312.000,18.400 312.000 C 18.840 312.000,19.200 311.820,19.200 311.600 C 19.200 311.380,19.470 311.200,19.800 311.200 C 20.130 311.200,20.400 311.020,20.400 310.800 C 20.400 310.580,20.598 310.400,20.840 310.400 C 21.081 310.400,21.783 309.860,22.400 309.200 C 23.017 308.540,23.681 308.000,23.876 308.000 C 24.071 308.000,25.189 307.100,26.361 306.000 C 27.532 304.900,28.646 304.000,28.835 304.000 C 29.024 304.000,29.989 303.190,30.979 302.200 C 31.969 301.210,32.945 300.400,33.149 300.400 C 33.352 300.400,34.438 299.500,35.561 298.400 C 36.685 297.300,37.691 296.400,37.797 296.400 C 38.345 296.400,41.600 293.303,41.600 292.782 C 41.600 292.572,41.869 292.400,42.197 292.400 C 42.778 292.400,43.648 291.753,46.091 289.500 C 46.748 288.895,47.441 288.400,47.632 288.400 C 47.823 288.400,48.789 287.590,49.779 286.600 C 50.769 285.610,51.745 284.800,51.949 284.800 C 52.152 284.800,53.238 283.900,54.361 282.800 C 55.485 281.700,56.505 280.800,56.628 280.800 C 56.751 280.800,57.729 279.900,58.800 278.800 C 59.871 277.700,60.948 276.800,61.192 276.800 C 61.436 276.800,62.052 276.395,62.559 275.900 C 63.885 274.607,65.239 273.504,66.488 272.699 C 67.087 272.313,68.206 271.368,68.975 270.599 C 69.744 269.829,70.467 269.200,70.582 269.200 C 70.909 269.200,72.409 267.926,73.761 266.500 C 74.440 265.785,75.142 265.200,75.323 265.200 C 75.504 265.200,76.529 264.300,77.600 263.200 C 78.671 262.100,79.754 261.200,80.005 261.200 C 80.257 261.200,81.129 260.506,81.943 259.659 C 82.758 258.811,83.895 257.866,84.470 257.559 C 85.511 257.002,88.873 254.172,91.429 251.700 L 92.773 250.400 188.387 250.400 C 251.862 250.400,284.000 250.266,284.000 250.000 C 284.000 249.780,284.900 249.600,286.000 249.600 C 287.100 249.600,288.000 249.420,288.000 249.200 C 288.000 248.980,288.630 248.800,289.400 248.800 C 290.170 248.800,290.800 248.620,290.800 248.400 C 290.800 248.180,291.239 248.000,291.776 248.000 C 292.313 248.000,292.864 247.820,293.000 247.600 C 293.136 247.380,293.597 247.200,294.024 247.200 C 294.451 247.200,294.800 247.020,294.800 246.800 C 294.800 246.580,295.160 246.400,295.600 246.400 C 296.040 246.400,296.400 246.220,296.400 246.000 C 296.400 245.780,296.760 245.600,297.200 245.600 C 297.640 245.600,298.000 245.420,298.000 245.200 C 298.000 244.980,298.360 244.800,298.800 244.800 C 299.240 244.800,299.600 244.620,299.600 244.400 C 299.600 244.180,299.960 244.000,300.400 244.000 C 300.840 244.000,301.200 243.820,301.200 243.600 C 301.200 243.380,301.436 243.200,301.725 243.200 C 302.013 243.200,302.607 242.885,303.045 242.500 C 303.483 242.115,304.282 241.546,304.820 241.236 C 307.182 239.877,312.028 235.445,313.607 233.200 C 314.148 232.430,315.088 231.278,315.696 230.641 C 316.303 230.003,316.800 229.278,316.800 229.029 C 316.800 228.780,317.160 228.317,317.600 228.000 C 318.040 227.683,318.400 227.103,318.400 226.712 C 318.400 226.320,318.580 226.000,318.800 226.000 C 319.020 226.000,319.200 225.640,319.200 225.200 C 319.200 224.760,319.380 224.400,319.600 224.400 C 319.820 224.400,320.000 224.130,320.000 223.800 C 320.000 223.470,320.180 223.200,320.400 223.200 C 320.620 223.200,320.800 222.840,320.800 222.400 C 320.800 221.960,320.980 221.600,321.200 221.600 C 321.420 221.600,321.600 221.328,321.600 220.995 C 321.600 220.662,321.759 220.077,321.953 219.695 C 322.584 218.454,323.139 217.029,323.546 215.600 C 323.766 214.830,324.183 213.390,324.473 212.400 C 325.253 209.737,325.253 40.263,324.473 37.600 C 324.183 36.610,323.766 35.170,323.546 34.400 C 323.139 32.971,322.584 31.546,321.953 30.305 C 321.759 29.923,321.600 29.338,321.600 29.005 C 321.600 28.672,321.420 28.400,321.200 28.400 C 320.980 28.400,320.800 28.040,320.800 27.600 C 320.800 27.160,320.620 26.800,320.400 26.800 C 320.180 26.800,320.000 26.530,320.000 26.200 C 320.000 25.870,319.820 25.600,319.600 25.600 C 319.380 25.600,319.200 25.240,319.200 24.800 C 319.200 24.360,319.020 24.000,318.800 24.000 C 318.580 24.000,318.400 23.680,318.400 23.288 C 318.400 22.897,318.040 22.317,317.600 22.000 C 317.160 21.683,316.800 21.220,316.800 20.971 C 316.800 20.722,316.303 19.997,315.696 19.359 C 315.088 18.722,314.148 17.570,313.607 16.800 C 312.028 14.555,307.182 10.123,304.820 8.764 C 304.282 8.454,303.483 7.885,303.045 7.500 C 302.607 7.115,302.013 6.800,301.725 6.800 C 301.436 6.800,301.200 6.620,301.200 6.400 C 301.200 6.180,300.840 6.000,300.400 6.000 C 299.960 6.000,299.600 5.820,299.600 5.600 C 299.600 5.380,299.240 5.200,298.800 5.200 C 298.360 5.200,298.000 5.020,298.000 4.800 C 298.000 4.580,297.640 4.400,297.200 4.400 C 296.760 4.400,296.400 4.220,296.400 4.000 C 296.400 3.780,296.040 3.600,295.600 3.600 C 295.160 3.600,294.800 3.420,294.800 3.200 C 294.800 2.980,294.440 2.800,294.000 2.800 C 293.560 2.800,293.200 2.620,293.200 2.400 C 293.200 2.180,292.660 2.000,292.000 2.000 C 291.340 2.000,290.800 1.820,290.800 1.600 C 290.800 1.380,290.185 1.200,289.433 1.200 C 288.682 1.200,287.992 0.975,287.900 0.700 C 287.743 0.230,44.835 -0.170,39.100 0.291 M274.800 25.600 C 274.800 25.828,275.992 26.000,277.576 26.000 C 279.103 26.000,280.464 26.180,280.600 26.400 C 280.736 26.620,281.377 26.800,282.024 26.800 C 282.671 26.800,283.200 26.980,283.200 27.200 C 283.200 27.420,283.560 27.600,284.000 27.600 C 284.440 27.600,284.800 27.780,284.800 28.000 C 284.800 28.220,285.160 28.400,285.600 28.400 C 286.040 28.400,286.400 28.580,286.400 28.800 C 286.400 29.020,286.720 29.200,287.112 29.200 C 287.503 29.200,288.083 29.560,288.400 30.000 C 288.717 30.440,289.180 30.800,289.429 30.800 C 290.065 30.800,294.000 34.855,294.000 35.510 C 294.000 35.697,294.315 36.198,294.701 36.625 C 295.086 37.051,295.848 38.300,296.395 39.400 C 296.942 40.500,297.502 41.490,297.639 41.600 C 298.011 41.897,298.445 44.261,298.668 47.200 C 298.776 48.630,299.030 49.971,299.232 50.180 C 299.726 50.691,299.726 199.309,299.232 199.820 C 299.030 200.029,298.776 201.370,298.668 202.800 C 298.445 205.739,298.011 208.103,297.639 208.400 C 297.502 208.510,296.942 209.500,296.395 210.600 C 295.848 211.700,295.086 212.949,294.701 213.375 C 294.315 213.802,294.000 214.303,294.000 214.490 C 294.000 215.145,290.065 219.200,289.429 219.200 C 289.180 219.200,288.717 219.560,288.400 220.000 C 288.083 220.440,287.503 220.800,287.112 220.800 C 286.720 220.800,286.400 220.980,286.400 221.200 C 286.400 221.420,286.040 221.600,285.600 221.600 C 285.160 221.600,284.800 221.780,284.800 222.000 C 284.800 222.220,284.440 222.400,284.000 222.400 C 283.560 222.400,283.200 222.580,283.200 222.800 C 283.200 223.020,282.570 223.200,281.800 223.200 C 281.030 223.200,280.400 223.380,280.400 223.600 C 280.400 223.829,279.200 224.000,277.600 224.000 C 276.000 224.000,274.800 224.171,274.800 224.400 C 274.800 224.666,242.498 224.801,178.700 224.803 L 82.600 224.807 80.744 225.903 C 78.608 227.166,76.232 229.068,73.754 231.500 C 72.801 232.435,71.855 233.200,71.651 233.200 C 71.448 233.200,70.362 234.100,69.239 235.200 C 68.115 236.300,67.035 237.200,66.839 237.200 C 66.642 237.200,65.562 238.100,64.439 239.200 C 63.315 240.300,62.217 241.200,61.998 241.200 C 61.779 241.200,61.600 241.380,61.600 241.600 C 61.600 241.820,61.359 242.000,61.064 242.000 C 60.770 242.000,59.862 242.720,59.048 243.600 C 58.234 244.480,57.400 245.200,57.194 245.200 C 56.989 245.200,56.011 246.010,55.021 247.000 C 54.031 247.990,53.055 248.800,52.851 248.800 C 52.648 248.800,51.562 249.700,50.439 250.800 C 49.315 251.900,48.217 252.800,47.998 252.800 C 47.779 252.800,47.600 252.980,47.600 253.200 C 47.600 253.420,47.406 253.600,47.169 253.600 C 46.931 253.600,46.046 254.320,45.200 255.200 C 44.354 256.080,43.552 256.800,43.417 256.800 C 43.282 256.800,42.773 257.164,42.286 257.609 C 39.797 259.881,38.690 260.800,38.442 260.800 C 38.292 260.800,37.211 261.700,36.039 262.800 C 34.868 263.900,33.754 264.800,33.565 264.800 C 33.376 264.800,32.411 265.610,31.421 266.600 C 30.431 267.590,29.528 268.400,29.415 268.400 C 29.124 268.400,27.686 269.598,26.343 270.959 L 25.200 272.119 25.200 161.259 C 25.200 87.620,25.334 50.400,25.600 50.400 C 25.831 50.400,26.000 49.141,26.000 47.424 C 26.000 45.787,26.180 44.336,26.400 44.200 C 26.620 44.064,26.800 43.423,26.800 42.776 C 26.800 42.129,26.946 41.600,27.125 41.600 C 27.304 41.600,27.698 40.970,28.000 40.200 C 28.302 39.430,28.696 38.800,28.875 38.800 C 29.054 38.800,29.200 38.480,29.200 38.088 C 29.200 37.697,29.560 37.117,30.000 36.800 C 30.440 36.483,30.800 35.989,30.800 35.703 C 30.800 35.025,35.025 30.800,35.703 30.800 C 35.989 30.800,36.483 30.440,36.800 30.000 C 37.117 29.560,37.697 29.200,38.088 29.200 C 38.480 29.200,38.800 29.054,38.800 28.875 C 38.800 28.696,39.430 28.302,40.200 28.000 C 40.970 27.698,41.600 27.304,41.600 27.125 C 41.600 26.946,42.129 26.800,42.776 26.800 C 43.423 26.800,44.064 26.620,44.200 26.400 C 44.336 26.180,45.787 26.000,47.424 26.000 C 49.141 26.000,50.400 25.831,50.400 25.600 C 50.400 25.334,88.067 25.200,162.600 25.200 C 237.133 25.200,274.800 25.334,274.800 25.600 M81.000 75.662 C 78.755 76.822,76.892 78.681,75.764 80.887 C 72.932 86.427,76.050 98.800,80.278 98.800 C 80.565 98.800,80.800 98.980,80.800 99.200 C 80.800 99.420,81.160 99.600,81.600 99.600 C 82.040 99.600,82.400 99.780,82.400 100.000 C 82.400 100.265,109.333 100.400,162.400 100.400 C 215.467 100.400,242.400 100.265,242.400 100.000 C 242.400 99.780,242.760 99.600,243.200 99.600 C 243.640 99.600,244.000 99.420,244.000 99.200 C 244.000 98.980,244.275 98.800,244.611 98.800 C 245.404 98.800,248.800 95.404,248.800 94.611 C 248.800 94.275,248.980 94.000,249.200 94.000 C 249.420 94.000,249.600 93.640,249.600 93.200 C 249.600 92.760,249.780 92.400,250.000 92.400 C 250.245 92.400,250.400 90.467,250.400 87.400 C 250.400 84.333,250.245 82.400,250.000 82.400 C 249.780 82.400,249.600 82.040,249.600 81.600 C 249.600 81.160,249.420 80.800,249.200 80.800 C 248.980 80.800,248.800 80.565,248.800 80.278 C 248.800 79.346,246.247 76.938,244.111 75.856 L 242.027 74.800 162.313 74.818 L 82.600 74.835 81.000 75.662 M345.000 100.000 C 344.864 100.220,344.403 100.400,343.976 100.400 C 343.549 100.400,343.200 100.580,343.200 100.800 C 343.200 101.020,343.015 101.200,342.789 101.200 C 342.143 101.200,338.800 104.711,338.800 105.389 C 338.800 105.725,338.620 106.000,338.400 106.000 C 338.180 106.000,338.000 106.360,338.000 106.800 C 338.000 107.240,337.820 107.600,337.600 107.600 C 337.355 107.600,337.200 109.533,337.200 112.600 C 337.200 115.667,337.355 117.600,337.600 117.600 C 337.820 117.600,338.000 117.960,338.000 118.400 C 338.000 118.840,338.180 119.200,338.400 119.200 C 338.620 119.200,338.800 119.435,338.800 119.722 C 338.800 121.760,344.209 125.200,347.414 125.200 C 348.616 125.200,349.600 125.380,349.600 125.600 C 349.600 125.831,350.859 126.000,352.576 126.000 C 354.213 126.000,355.664 126.180,355.800 126.400 C 355.936 126.620,356.577 126.800,357.224 126.800 C 357.871 126.800,358.400 126.946,358.400 127.125 C 358.400 127.304,359.030 127.698,359.800 128.000 C 360.570 128.302,361.200 128.696,361.200 128.875 C 361.200 129.054,361.520 129.200,361.912 129.200 C 362.303 129.200,362.883 129.560,363.200 130.000 C 363.517 130.440,363.995 130.800,364.262 130.800 C 364.895 130.800,369.200 135.105,369.200 135.738 C 369.200 136.005,369.560 136.483,370.000 136.800 C 370.440 137.117,370.800 137.697,370.800 138.088 C 370.800 138.480,370.946 138.800,371.125 138.800 C 371.304 138.800,371.698 139.430,372.000 140.200 C 372.302 140.970,372.696 141.600,372.875 141.600 C 373.054 141.600,373.200 142.219,373.200 142.976 C 373.200 143.733,373.380 144.464,373.600 144.600 C 373.820 144.736,374.000 146.082,374.000 147.590 C 374.000 149.099,374.180 150.393,374.401 150.467 C 374.667 150.556,374.768 185.633,374.701 255.295 L 374.600 359.989 373.322 358.795 C 372.619 358.138,371.854 357.600,371.622 357.600 C 371.390 357.600,371.200 357.420,371.200 357.200 C 371.200 356.980,371.002 356.800,370.760 356.800 C 370.519 356.800,369.817 356.260,369.200 355.600 C 368.583 354.940,367.881 354.400,367.640 354.400 C 367.398 354.400,367.200 354.220,367.200 354.000 C 367.200 353.780,367.014 353.600,366.787 353.600 C 366.559 353.600,365.743 352.970,364.973 352.200 C 364.203 351.430,363.414 350.800,363.219 350.800 C 363.025 350.800,362.116 350.080,361.200 349.200 C 360.284 348.320,359.399 347.600,359.232 347.600 C 359.066 347.600,358.210 346.925,357.330 346.100 C 355.346 344.241,353.022 342.390,351.679 341.600 C 351.118 341.270,349.949 340.325,349.081 339.500 C 348.214 338.675,347.345 338.000,347.152 338.000 C 346.959 338.000,346.059 337.280,345.152 336.400 C 344.245 335.520,343.339 334.800,343.138 334.800 C 342.938 334.800,342.164 334.215,341.420 333.500 C 339.281 331.445,337.898 330.266,336.396 329.214 C 335.628 328.677,334.730 327.940,334.400 327.575 C 334.070 327.211,332.861 326.437,331.713 325.856 L 329.627 324.800 240.013 324.800 C 180.538 324.800,150.400 324.665,150.400 324.400 C 150.400 324.172,149.208 324.000,147.624 324.000 C 146.097 324.000,144.736 323.820,144.600 323.600 C 144.464 323.380,143.733 323.200,142.976 323.200 C 142.219 323.200,141.600 323.054,141.600 322.875 C 141.600 322.696,140.970 322.302,140.200 322.000 C 139.430 321.698,138.800 321.304,138.800 321.125 C 138.800 320.946,138.480 320.800,138.088 320.800 C 137.697 320.800,137.117 320.440,136.800 320.000 C 136.483 319.560,136.005 319.200,135.738 319.200 C 135.471 319.200,134.250 318.198,133.026 316.974 C 131.802 315.750,130.800 314.529,130.800 314.262 C 130.800 313.995,130.440 313.517,130.000 313.200 C 129.560 312.883,129.200 312.303,129.200 311.912 C 129.200 311.520,129.054 311.200,128.875 311.200 C 128.696 311.200,128.302 310.570,128.000 309.800 C 127.698 309.030,127.304 308.400,127.125 308.400 C 126.946 308.400,126.800 307.871,126.800 307.224 C 126.800 306.577,126.620 305.936,126.400 305.800 C 126.180 305.664,126.000 304.213,126.000 302.576 C 126.000 300.859,125.831 299.600,125.600 299.600 C 125.346 299.600,125.200 296.528,125.200 291.184 C 125.200 280.648,124.323 278.427,119.113 275.764 C 113.573 272.932,101.200 276.050,101.200 280.278 C 101.200 280.565,101.020 280.800,100.800 280.800 C 100.580 280.800,100.400 281.160,100.400 281.600 C 100.400 282.040,100.220 282.400,100.000 282.400 C 99.452 282.400,99.452 308.661,100.000 309.000 C 100.220 309.136,100.400 310.047,100.400 311.024 C 100.400 312.001,100.580 312.800,100.800 312.800 C 101.020 312.800,101.200 313.419,101.200 314.176 C 101.200 314.933,101.380 315.664,101.600 315.800 C 101.820 315.936,102.000 316.476,102.000 317.000 C 102.000 317.524,102.180 318.064,102.400 318.200 C 102.620 318.336,102.800 318.797,102.800 319.224 C 102.800 319.651,102.980 320.000,103.200 320.000 C 103.420 320.000,103.600 320.360,103.600 320.800 C 103.600 321.240,103.780 321.600,104.000 321.600 C 104.220 321.600,104.400 321.960,104.400 322.400 C 104.400 322.840,104.546 323.200,104.725 323.200 C 104.904 323.200,105.298 323.830,105.600 324.600 C 105.902 325.370,106.296 326.000,106.475 326.000 C 106.654 326.000,106.800 326.294,106.800 326.653 C 106.800 327.012,107.115 327.597,107.500 327.953 C 107.885 328.309,108.547 329.230,108.972 330.000 C 109.396 330.770,110.028 331.670,110.376 332.000 C 110.724 332.330,111.627 333.421,112.381 334.424 C 113.136 335.427,114.573 336.864,115.576 337.619 C 116.579 338.373,117.670 339.281,118.000 339.636 C 118.330 339.991,119.230 340.605,120.000 341.000 C 120.770 341.395,121.691 342.052,122.047 342.459 C 122.403 342.867,122.988 343.200,123.347 343.200 C 123.706 343.200,124.000 343.346,124.000 343.525 C 124.000 343.704,124.630 344.098,125.400 344.400 C 126.170 344.702,126.800 345.096,126.800 345.275 C 126.800 345.454,127.160 345.600,127.600 345.600 C 128.040 345.600,128.400 345.780,128.400 346.000 C 128.400 346.220,128.760 346.400,129.200 346.400 C 129.640 346.400,130.000 346.580,130.000 346.800 C 130.000 347.020,130.349 347.200,130.776 347.200 C 131.203 347.200,131.664 347.380,131.800 347.600 C 131.936 347.820,132.476 348.000,133.000 348.000 C 133.524 348.000,134.064 348.180,134.200 348.400 C 134.336 348.620,135.067 348.800,135.824 348.800 C 136.581 348.800,137.200 348.980,137.200 349.200 C 137.200 349.420,138.100 349.600,139.200 349.600 C 140.300 349.600,141.200 349.780,141.200 350.000 C 141.200 350.265,171.237 350.400,230.512 350.400 C 319.365 350.400,319.826 350.404,320.400 351.200 C 320.717 351.640,321.185 352.000,321.440 352.000 C 321.695 352.000,322.645 352.720,323.552 353.600 C 324.459 354.480,325.345 355.200,325.522 355.200 C 325.699 355.200,326.454 355.830,327.200 356.600 C 327.946 357.370,328.770 358.000,329.030 358.000 C 329.291 358.000,330.245 358.720,331.152 359.600 C 332.059 360.480,332.981 361.200,333.200 361.200 C 333.420 361.200,333.600 361.380,333.600 361.600 C 333.600 361.820,333.798 362.000,334.040 362.000 C 334.281 362.000,334.983 362.540,335.600 363.200 C 336.217 363.860,336.897 364.400,337.112 364.400 C 337.327 364.400,338.245 365.120,339.152 366.000 C 340.059 366.880,340.944 367.600,341.119 367.600 C 341.294 367.600,342.141 368.320,343.000 369.200 C 343.859 370.080,344.730 370.800,344.934 370.800 C 345.139 370.800,345.597 371.130,345.953 371.534 C 346.309 371.938,347.590 372.958,348.800 373.800 C 350.010 374.642,351.291 375.662,351.647 376.066 C 352.003 376.470,352.476 376.800,352.699 376.800 C 352.921 376.800,353.845 377.520,354.752 378.400 C 355.659 379.280,356.552 380.000,356.737 380.000 C 356.922 380.000,357.807 380.720,358.705 381.600 C 359.603 382.480,360.441 383.200,360.568 383.200 C 360.695 383.200,361.541 383.920,362.448 384.800 C 363.355 385.680,364.273 386.400,364.488 386.400 C 364.703 386.400,365.356 386.902,365.940 387.515 C 366.523 388.129,367.630 389.069,368.400 389.605 C 369.929 390.668,370.041 390.754,371.800 392.207 C 372.460 392.753,373.132 393.199,373.293 393.200 C 373.455 393.200,374.265 393.829,375.093 394.599 C 378.458 397.722,379.780 398.800,380.245 398.800 C 380.514 398.800,380.808 399.025,380.900 399.300 C 381.139 400.018,393.661 400.018,393.900 399.300 C 393.992 399.025,394.326 398.800,394.644 398.800 C 395.395 398.800,398.800 395.395,398.800 394.644 C 398.800 394.326,399.025 393.992,399.300 393.900 C 399.699 393.767,399.800 367.751,399.800 265.600 C 399.800 163.449,399.699 137.433,399.300 137.300 C 399.025 137.208,398.800 136.529,398.800 135.790 C 398.800 135.052,398.620 134.336,398.400 134.200 C 398.180 134.064,398.000 133.524,398.000 133.000 C 398.000 132.476,397.820 131.936,397.600 131.800 C 397.380 131.664,397.200 131.203,397.200 130.776 C 397.200 130.349,397.020 130.000,396.800 130.000 C 396.580 130.000,396.400 129.640,396.400 129.200 C 396.400 128.760,396.220 128.400,396.000 128.400 C 395.780 128.400,395.600 128.040,395.600 127.600 C 395.600 127.160,395.454 126.800,395.275 126.800 C 395.096 126.800,394.702 126.170,394.400 125.400 C 394.098 124.630,393.704 124.000,393.525 124.000 C 393.346 124.000,393.200 123.680,393.200 123.288 C 393.200 122.897,392.840 122.317,392.400 122.000 C 391.960 121.683,391.600 121.186,391.600 120.895 C 391.600 120.604,391.398 120.125,391.151 119.829 C 390.904 119.534,390.229 118.733,389.651 118.051 C 389.073 117.368,388.067 116.125,387.416 115.289 C 386.764 114.453,385.547 113.236,384.711 112.584 C 383.369 111.539,382.621 110.925,380.225 108.900 C 379.900 108.625,379.396 108.400,379.105 108.400 C 378.814 108.400,378.317 108.040,378.000 107.600 C 377.683 107.160,377.103 106.800,376.712 106.800 C 376.320 106.800,376.000 106.654,376.000 106.475 C 376.000 106.296,375.370 105.902,374.600 105.600 C 373.830 105.298,373.200 104.904,373.200 104.725 C 373.200 104.546,372.840 104.400,372.400 104.400 C 371.960 104.400,371.600 104.220,371.600 104.000 C 371.600 103.780,371.240 103.600,370.800 103.600 C 370.360 103.600,370.000 103.420,370.000 103.200 C 370.000 102.980,369.651 102.800,369.224 102.800 C 368.797 102.800,368.336 102.620,368.200 102.400 C 368.064 102.180,367.524 102.000,367.000 102.000 C 366.476 102.000,365.936 101.820,365.800 101.600 C 365.664 101.380,364.933 101.200,364.176 101.200 C 363.419 101.200,362.800 101.020,362.800 100.800 C 362.800 100.580,362.001 100.400,361.024 100.400 C 360.047 100.400,359.136 100.220,359.000 100.000 C 358.851 99.759,356.070 99.600,352.000 99.600 C 347.930 99.600,345.149 99.759,345.000 100.000 M81.000 125.662 C 78.755 126.822,76.892 128.681,75.764 130.887 C 72.932 136.427,76.050 148.800,80.278 148.800 C 80.565 148.800,80.800 148.980,80.800 149.200 C 80.800 149.420,81.160 149.600,81.600 149.600 C 82.040 149.600,82.400 149.780,82.400 150.000 C 82.400 150.265,101.000 150.400,137.400 150.400 C 173.800 150.400,192.400 150.265,192.400 150.000 C 192.400 149.780,192.760 149.600,193.200 149.600 C 193.640 149.600,194.000 149.420,194.000 149.200 C 194.000 148.980,194.275 148.800,194.611 148.800 C 195.404 148.800,198.800 145.404,198.800 144.611 C 198.800 144.275,198.980 144.000,199.200 144.000 C 199.420 144.000,199.600 143.640,199.600 143.200 C 199.600 142.760,199.780 142.400,200.000 142.400 C 200.245 142.400,200.400 140.467,200.400 137.400 C 200.400 134.333,200.245 132.400,200.000 132.400 C 199.780 132.400,199.600 132.040,199.600 131.600 C 199.600 131.160,199.420 130.800,199.200 130.800 C 198.980 130.800,198.800 130.565,198.800 130.278 C 198.800 129.346,196.247 126.938,194.111 125.856 L 192.027 124.800 137.313 124.818 C 82.816 124.835,82.594 124.839,81.000 125.662 " stroke="none" fill="#04cc1c" fill-rule="evenodd"></path><path id="path1" d="" stroke="none" fill="#08cc1c" fill-rule="evenodd"></path><path id="path2" d="" stroke="none" fill="#08cc1c" fill-rule="evenodd"></path><path id="path3" d="" stroke="none" fill="#08cc1c" fill-rule="evenodd"></path><path id="path4" d="" stroke="none" fill="#08cc1c" fill-rule="evenodd"></path></g></svg>